<mxGraphModel><root><mxCell id="0"/><mxCell id="1" parent="0"/><mxCell id="2" value="Створити одновимірний масив" style="whiteSpace=wrap;strokeWidth=2;" vertex="1" parent="1"><mxGeometry x="159" width="241" height="33" as="geometry"/></mxCell><mxCell id="3" value="Кількість елементів ввести з клавіатури" style="whiteSpace=wrap;strokeWidth=2;" vertex="1" parent="1"><mxGeometry x="263" y="83" width="314" height="33" as="geometry"/></mxCell><mxCell id="4" value="Генерація псевдовипадкових чисел" style="whiteSpace=wrap;strokeWidth=2;" vertex="1" parent="1"><mxGeometry y="167" width="279" height="33" as="geometry"/></mxCell><mxCell id="5" value="Введення з клавіатури" style="whiteSpace=wrap;strokeWidth=2;" vertex="1" parent="1"><mxGeometry x="329" y="167" width="182" height="33" as="geometry"/></mxCell><mxCell id="6" value="Сортування масиву" style="whiteSpace=wrap;strokeWidth=2;" vertex="1" parent="1"><mxGeometry x="201" y="250" width="158" height="33" as="geometry"/></mxCell><mxCell id="7" value="Відобразити відсортований масив" style="whiteSpace=wrap;strokeWidth=2;" vertex="1" parent="1"><mxGeometry x="147" y="334" width="266" height="33" as="geometry"/></mxCell><mxCell id="8" value="" style="curved=1;startArrow=none;endArrow=block;exitX=0.7345816165562172;exitY=1.0121212583599668;entryX=0.5004379369650677;entryY=0.012121258359966856;" edge="1" parent="1" source="2" target="3"><mxGeometry relative="1" as="geometry"><Array as="points"><mxPoint x="420" y="58"/></Array></mxGeometry></mxCell><mxCell id="9" value="" style="curved=1;startArrow=none;endArrow=block;exitX=0.2683489573464669;exitY=1.0121212583599668;entryX=0.5002464376470094;entryY=-0.006060513583096591;" edge="1" parent="1" source="2" target="4"><mxGeometry relative="1" as="geometry"><Array as="points"><mxPoint x="140" y="58"/></Array></mxGeometry></mxCell><mxCell id="10" value="" style="curved=1;startArrow=none;endArrow=block;exitX=0.5004379369650677;exitY=1.0242425167199336;entryX=0.5007555615770948;entryY=-0.006060513583096591;" edge="1" parent="1" source="3" target="5"><mxGeometry relative="1" as="geometry"><Array as="points"/></mxGeometry></mxCell><mxCell id="11" value="" style="curved=1;startArrow=none;endArrow=block;exitX=0.5002464376470094;exitY=1.0060607447768704;entryX=0.14349429569935776;entryY=0.006060744776870265;" edge="1" parent="1" source="4" target="6"><mxGeometry relative="1" as="geometry"><Array as="points"><mxPoint x="140" y="225"/></Array></mxGeometry></mxCell><mxCell id="12" value="" style="curved=1;startArrow=none;endArrow=block;exitX=0.5007555615770948;exitY=1.0060607447768704;entryX=0.8546466429749896;entryY=0.006060744776870265;" edge="1" parent="1" source="5" target="6"><mxGeometry relative="1" as="geometry"><Array as="points"><mxPoint x="420" y="225"/></Array></mxGeometry></mxCell><mxCell id="13" value="" style="curved=1;startArrow=none;endArrow=block;exitX=0.49907046933717364;exitY=1.0181820031368372;entryX=0.49944787276418584;entryY=-0.012121027166193182;" edge="1" parent="1" source="6" target="7"><mxGeometry relative="1" as="geometry"><Array as="points"/></mxGeometry></mxCell></root></mxGraphModel>